HIERARCHY
ROOT Hips
{
	OFFSET 0.000000 0.000000 0.000000
	CHANNELS 6 Xposition Yposition Zposition Zrotation Yrotation Xrotation 
	JOINT LHipJoint
	{
		OFFSET 0.000000 0.000000 0.000000
		CHANNELS 3 Zrotation Yrotation Xrotation
		JOINT LeftUpLeg
		{
			OFFSET 1.363060 -1.794630 0.839290
			CHANNELS 3 Zrotation Yrotation Xrotation
			JOINT LeftLeg
			{
				OFFSET 2.448110 -6.726130 0.000000
				CHANNELS 3 Zrotation Yrotation Xrotation
				JOINT LeftFoot
				{
					OFFSET 2.562200 -7.039590 0.000000
					CHANNELS 3 Zrotation Yrotation Xrotation
					JOINT LeftToeBase
					{
						OFFSET 0.157640 -0.433110 2.322550
						CHANNELS 3 Zrotation Yrotation Xrotation
						End Site
						{
							OFFSET 0.000000 0.000000 0.000000
						}
					}
				}
			}
		}
	}
	JOINT RHipJoint
	{
		OFFSET 0.000000 0.000000 0.000000
		CHANNELS 3 Zrotation Yrotation Xrotation
		JOINT RightUpLeg
		{
			OFFSET -1.305520 -1.794630 0.839290
			CHANNELS 3 Zrotation Yrotation Xrotation
			JOINT RightLeg
			{
				OFFSET -2.542530 -6.985550 0.000000
				CHANNELS 3 Zrotation Yrotation Xrotation
				JOINT RightFoot
				{
					OFFSET -2.568260 -7.056230 0.000000
					CHANNELS 3 Zrotation Yrotation Xrotation
					JOINT RightToeBase
					{
						OFFSET -0.164730 -0.452590 2.363150
						CHANNELS 3 Zrotation Yrotation Xrotation
						End Site
						{
							OFFSET 0.000000 0.000000 0.000000
						}
					}
				}
			}
		}
	}
	JOINT LowerBack
	{
		OFFSET 0.000000 0.000000 0.000000
		CHANNELS 3 Zrotation Yrotation Xrotation
		JOINT Spine
		{
			OFFSET 0.028270 2.035590 -0.193380
			CHANNELS 3 Zrotation Yrotation Xrotation
			JOINT Spine1
			{
				OFFSET 0.056720 2.048850 -0.042750
				CHANNELS 3 Zrotation Yrotation Xrotation
				JOINT Neck
				{
					OFFSET 0.000000 0.000000 0.000000
					CHANNELS 3 Zrotation Yrotation Xrotation
					JOINT Neck1
					{
						OFFSET -0.054170 1.746240 0.172020
						CHANNELS 3 Zrotation Yrotation Xrotation
						JOINT Head
						{
							OFFSET 0.104070 1.761360 -0.123970
							CHANNELS 3 Zrotation Yrotation Xrotation
							End Site
							{
								OFFSET 0.000000 0.000000 0.000000
							}
						}
					}
				}
				JOINT LeftShoulder
				{
					OFFSET 0.000000 0.000000 0.000000
					CHANNELS 3 Zrotation Yrotation Xrotation
					JOINT LeftArm
					{
						OFFSET 3.362410 1.200890 -0.311210
						CHANNELS 3 Zrotation Yrotation Xrotation
						JOINT LeftForeArm
						{
							OFFSET 4.983000 -0.000000 -0.000000
							CHANNELS 3 Zrotation Yrotation Xrotation
							JOINT LeftHand
							{
								OFFSET 3.483560 -0.000000 -0.000000
								CHANNELS 3 Zrotation Yrotation Xrotation
								JOINT LeftFingerBase
								{
									OFFSET 0.000000 0.000000 0.000000
									CHANNELS 3 Zrotation Yrotation Xrotation
									JOINT LeftHandIndex1
									{
										OFFSET 0.715260 -0.000000 -0.000000
										CHANNELS 3 Zrotation Yrotation Xrotation
										End Site
										{
											OFFSET 0.000000 0.000000 0.000000
										}
									}
								}
								JOINT LThumb
								{
									OFFSET 0.000000 0.000000 0.000000
									CHANNELS 3 Zrotation Yrotation Xrotation
									End Site
									{
										OFFSET 0.000000 0.000000 0.000000
									}
								}
							}
						}
					}
				}
				JOINT RightShoulder
				{
					OFFSET 0.000000 0.000000 0.000000
					CHANNELS 3 Zrotation Yrotation Xrotation
					JOINT RightArm
					{
						OFFSET -3.136600 1.374050 -0.404650
						CHANNELS 3 Zrotation Yrotation Xrotation
						JOINT RightForeArm
						{
							OFFSET -5.241900 -0.000000 -0.000000
							CHANNELS 3 Zrotation Yrotation Xrotation
							JOINT RightHand
							{
								OFFSET -3.444170 -0.000000 -0.000000
								CHANNELS 3 Zrotation Yrotation Xrotation
								JOINT RightFingerBase
								{
									OFFSET 0.000000 0.000000 0.000000
									CHANNELS 3 Zrotation Yrotation Xrotation
									JOINT RightHandIndex1
									{
										OFFSET -0.622530 -0.000000 -0.000000
										CHANNELS 3 Zrotation Yrotation Xrotation
										End Site
										{
											OFFSET 0.000000 0.000000 0.000000
										}
									}
								}
								JOINT RThumb
								{
									OFFSET 0.000000 0.000000 0.000000
									CHANNELS 3 Zrotation Yrotation Xrotation
									End Site
									{
										OFFSET 0.000000 0.000000 0.000000
									}
								}
							}
						}
					}
				}
			}
		}
	}
}
MOTION
Frames: 8
Frame Time: 0.008333
4.017129 18.187419 -0.033043 -0.952653 -52.687583 9.050908 -3.399052 5.467346 6.234241 -10.990835 -9.478980 -12.353451 -0.460212 4.601553 17.163719 -4.964706 22.552621 -22.129281 0.005000 0.455600 1.251800 -2.501572 -6.401476 4.767712 18.241063 28.435132 -16.133605 -2.287047 -6.474685 24.874158 5.467931 -20.406680 -10.787521 -0.037700 -1.254000 3.447800 2.989073 0.124175 -3.499107 1.670775 -0.927536 18.038665 0.651504 0.079393 -8.660976 -5.720944 -1.589315 -15.282412 8.410418 -2.691184 14.800807 3.308100 -0.914100 5.253600 -6.976620 -1.254054 -1.004860 -78.671242 -7.856126 17.075321 6.414129 -9.048861 -0.504602 -1.338878 0.301476 43.657995 33.160043 15.978250 11.039200 -7.125000 0.000000 0.000000 6.504800 49.713000 0.758700 6.832403 1.242352 -1.684731 74.395117 1.163645 21.023397 -51.164650 49.493007 -30.874926 -1.158451 2.754876 -61.344979 -36.131695 -9.226159 9.104900 7.125000 0.000000 0.000000 -10.096100 -44.621900 -0.095200 
4.001864 18.187322 -0.048308 -0.731570 -52.877453 9.039618 -3.414834 5.458241 6.240623 -11.076701 -9.333717 -12.480976 -0.476787 4.554671 17.038109 -4.985632 22.594175 -22.080592 0.002400 0.318300 0.874700 -2.512723 -6.402673 4.787090 18.075796 28.486490 -16.463356 -2.313826 -6.524042 25.010851 5.419525 -20.229698 -10.571194 -0.030500 -1.127700 3.100300 2.875041 0.056111 -3.556739 1.496260 -1.022531 18.264483 0.762924 0.024796 -8.582488 -5.477038 -1.462740 -15.298246 7.988354 -2.489937 14.991616 3.208500 -0.835700 5.285000 -6.925568 -1.241337 -1.026233 -78.560097 -8.102671 19.273356 6.576382 -9.316810 -0.536970 -1.347730 0.250840 41.680669 33.239787 15.962041 11.062400 -7.125000 0.000000 0.000000 6.583200 49.713000 0.767900 6.758001 1.241921 -1.667098 74.461851 0.919278 22.249683 -53.970967 50.566316 -33.535038 -1.206232 2.732203 -61.001894 -37.701762 -9.561791 9.938400 7.125000 0.000000 0.000000 -11.585400 -45.381600 0.110600 
3.984859 18.186839 -0.062897 -0.619511 -53.088028 9.018861 -3.420154 5.458923 6.255748 -11.096066 -9.251842 -12.529138 -0.484486 4.539585 17.003223 -4.959975 22.554268 -22.175730 0.003200 0.366300 1.006400 -2.519974 -6.404694 4.801470 18.031193 28.587238 -16.604809 -2.330378 -6.548241 25.088693 5.392660 -20.127896 -10.438085 -0.026000 -1.041300 2.862500 2.808568 -0.017529 -3.483331 1.434387 -1.119756 18.481723 0.805546 -0.029613 -8.586619 -5.454491 -1.326168 -15.360864 7.798369 -2.292054 15.320647 3.185500 -0.748300 5.351100 -6.876420 -1.226410 -1.044947 -78.535396 -8.297199 21.191113 6.750194 -9.612487 -0.572147 -1.350655 0.201989 40.046730 33.185279 15.991287 11.060000 -7.125000 0.000000 0.000000 6.516400 49.744500 0.765100 6.685070 1.220918 -1.645030 74.440191 0.618140 23.562162 -56.958937 51.615920 -36.365836 -1.230173 2.720996 -60.527843 -40.245266 -9.953396 11.263000 7.125000 0.000000 0.000000 -14.103100 -46.433000 0.508700 
3.965053 18.186259 -0.078743 -0.704697 -53.551376 9.306866 -3.424742 5.438956 6.253800 -11.019803 -9.102877 -12.698444 -0.499250 4.529011 16.972519 -4.905560 22.527399 -22.531628 0.007000 0.542100 1.489700 -2.536241 -6.406884 4.808882 18.061345 28.859740 -16.896294 -2.347643 -6.570811 25.162497 5.346834 -19.950756 -10.185406 -0.025300 -1.027000 2.823200 2.711734 0.010518 -3.498817 1.511577 -1.091854 18.533129 0.844842 -0.012257 -8.545360 -5.378044 -1.181629 -15.256556 7.598495 -2.095218 15.633085 3.154100 -0.663600 5.392500 -6.866347 -1.210886 -1.060390 -78.527397 -8.392264 23.264822 6.981811 -9.988986 -0.618805 -1.337023 0.151073 38.310708 32.879364 15.750539 10.779300 -7.125000 0.000000 0.000000 6.195500 49.407200 0.675600 6.619248 1.211970 -1.610268 74.509035 0.340153 24.549524 -59.886544 52.578330 -39.169965 -1.259013 2.701915 -59.784739 -42.487187 -10.539714 12.773000 7.125000 0.000000 0.000000 -16.432700 -47.752200 1.145100 
3.939160 18.183844 -0.105022 -0.935275 -54.713803 10.121042 -3.437847 5.355325 6.206333 -10.953139 -8.662223 -13.260869 -0.514899 4.536209 16.998716 -4.835808 22.613393 -23.263452 0.013000 0.735700 2.021900 -2.567535 -6.423798 4.813679 17.977649 29.566561 -17.655316 -2.360056 -6.582277 25.173997 5.261138 -19.590827 -9.507928 -0.020000 -0.912200 2.507300 2.174387 0.226057 -3.860189 1.890917 -0.860505 18.378013 1.077278 0.146331 -8.292383 -5.200171 -0.972058 -15.279622 7.136240 -1.785702 16.167938 3.068200 -0.534400 5.497500 -6.924689 -1.203024 -1.060419 -78.554250 -8.606710 24.900709 7.185268 -10.287992 -0.659832 -1.323433 0.110588 36.763906 32.588880 15.484216 10.492200 -7.125000 0.000000 0.000000 5.899300 49.041000 0.589800 6.524563 1.244742 -1.537271 74.410870 0.211183 25.556994 -62.683149 53.453732 -41.907710 -1.324310 2.662545 -59.105100 -43.849724 -11.501804 14.341200 7.125000 0.000000 0.000000 -17.999100 -49.422800 2.021800 
3.923121 18.183071 -0.130819 -1.081484 -55.126094 10.327302 -3.426160 5.342906 6.213623 -10.854308 -8.463058 -13.386413 -0.509135 4.559148 17.056303 -4.859479 22.745362 -23.431305 0.013900 0.761000 2.091400 -2.575522 -6.430167 4.828737 18.128687 29.652884 -17.812653 -2.365275 -6.583865 25.174228 5.221121 -19.410711 -9.098209 -0.015200 -0.795900 2.187400 1.935999 0.172241 -3.637033 2.086143 -0.944502 18.511617 1.197110 0.118946 -8.375229 -4.977751 -0.783519 -15.290770 6.628804 -1.495984 16.646187 2.960700 -0.420200 5.578700 -6.925623 -1.173634 -1.078925 -78.572249 -8.799387 26.257049 7.406770 -10.652594 -0.706950 -1.312507 0.068110 35.361714 32.396921 15.343008 10.327800 -7.125000 0.000000 0.000000 5.697200 48.846700 0.542100 6.433470 1.236534 -1.484598 74.296237 0.016631 26.616678 -65.659027 54.363794 -44.849558 -1.397822 2.613390 -58.789817 -45.210903 -12.257050 15.804300 7.125000 0.000000 0.000000 -19.614700 -50.860700 2.929200 
3.906986 18.183167 -0.140577 -1.307021 -55.384985 10.758286 -3.424095 5.328573 6.198216 -10.673645 -8.695590 -13.539646 -0.510142 4.590363 17.149912 -4.812772 22.820952 -23.946154 0.018600 0.881500 2.422800 -2.586221 -6.424031 4.852712 18.228974 29.632469 -18.163034 -2.361378 -6.578382 25.145470 5.158535 -19.172271 -8.753901 -0.012700 -0.726400 1.996200 2.131763 0.105704 -3.762648 2.049073 -1.031808 18.641878 1.099134 0.055404 -8.275528 -4.871771 -0.682642 -15.244080 6.341552 -1.345859 17.070957 2.896700 -0.364700 5.658500 -6.905640 -1.179216 -1.093110 -78.694746 -8.949846 26.708433 7.598840 -10.962873 -0.750159 -1.293583 0.055247 34.917720 32.154660 15.094152 10.073700 -7.125000 0.000000 0.000000 5.451700 48.508100 0.473100 6.402545 1.230057 -1.443950 74.413554 -0.048586 27.370643 -68.373898 55.158502 -47.523590 -1.440070 2.573699 -58.339278 -46.421336 -12.420461 16.682300 7.125000 0.000000 0.000000 -20.985100 -51.500300 3.488800 
3.894040 18.181622 -0.154587 -1.515224 -55.602554 11.036065 -3.418409 5.323900 6.200068 -10.497104 -8.765216 -13.659040 -0.503316 4.635553 17.271411 -4.725956 22.707102 -24.289677 0.026200 1.045100 2.872800 -2.598875 -6.418397 4.866968 18.382709 29.695997 -18.289767 -2.354605 -6.560786 25.105888 5.111887 -19.002975 -8.594603 -0.016000 -0.816300 2.243500 2.345779 0.024426 -3.628814 1.922782 -1.122814 18.805946 1.020206 -0.011737 -8.340550 -4.654324 -0.557179 -15.274973 6.048812 -1.184686 17.618652 2.820500 -0.299100 5.766900 -6.881804 -1.180702 -1.096911 -78.841323 -9.336780 26.280965 7.646732 -11.026612 -0.760664 -1.267642 0.069442 35.390603 31.720507 14.719015 9.670100 -7.125000 0.000000 0.000000 5.025100 47.982700 0.370700 6.384890 1.222794 -1.403019 74.635301 -0.016931 27.890258 -70.913933 55.896956 -50.029701 -1.481423 2.534314 -57.735763 -47.163376 -12.489437 17.222100 7.125000 0.000000 0.000000 -21.807500 -51.893300 3.853300 
